<svg width="21" height="19" viewBox="0 0 21 19" fill="none" xmlns="http://www.w3.org/2000/svg">
<path d="M3.85 1L1 3.83333M20 3.83333L17.15 1M4.8 16.1111L2.9 18M16.2 16.1111L18.1 18M10.5 6.66667V10.4444L12.4 12.3333M10.5 18C12.5156 18 14.4488 17.2039 15.8741 15.7871C17.2992 14.3701 18.1 12.4483 18.1 10.4444C18.1 8.44062 17.2992 6.5188 15.8741 5.10186C14.4488 3.68491 12.5156 2.88889 10.5 2.88889C8.48436 2.88889 6.55127 3.68491 5.12599 5.10186C3.70071 6.5188 2.9 8.44062 2.9 10.4444C2.9 12.4483 3.70071 14.3701 5.12599 15.7871C6.55127 17.2039 8.48436 18 10.5 18Z" stroke="#353232" stroke-width="1.5" stroke-linecap="round" stroke-linejoin="round"/>
</svg>
