<svg width="20" height="21" viewBox="0 0 20 21" fill="none" xmlns="http://www.w3.org/2000/svg">
<g clip-path="url(#clip0_332_1113)">
<path d="M17.8592 13.9421C17.1702 15.8353 15.8211 17.4163 14.0598 18.3946C12.2985 19.3729 10.2434 19.6828 8.27191 19.2673C6.30049 18.8519 4.54517 17.7391 3.32845 16.1332C2.11174 14.5273 1.51537 12.5364 1.64889 10.526C1.78241 8.51572 2.63687 6.6211 4.05528 5.19027C5.47368 3.75943 7.3608 2.88847 9.36984 2.7374C11.3789 2.58634 13.375 3.16532 14.9915 4.36796C16.6079 5.57061 17.736 7.31616 18.1686 9.28386M18.1686 9.28386L19.2442 7.34348M18.1686 9.28386L16.2282 8.20829" stroke="#353232" stroke-width="1.2" stroke-linecap="round" stroke-linejoin="round"/>
<path d="M10 7.09998V11.0905L12.9929 14.0833" stroke="#353232" stroke-width="1.2" stroke-linecap="round" stroke-linejoin="round"/>
</g>
<defs>
<clipPath id="clip0_332_1113">
<rect width="20" height="20" fill="white" transform="matrix(1 0 0 -1 0 20.8)"/>
</clipPath>
</defs>
</svg>
