<svg width="20" height="25" viewBox="0 0 20 25" fill="none" xmlns="http://www.w3.org/2000/svg">
<path fill-rule="evenodd" clip-rule="evenodd" d="M14.4312 12.502H5.56962C5.16199 12.502 4.83116 12.8379 4.83116 13.2518C4.83116 13.6665 5.16199 14.0017 5.56962 14.0017H14.4312C14.8388 14.0017 15.1696 13.6665 15.1696 13.2518C15.1696 12.8379 14.8388 12.502 14.4312 12.502ZM14.4312 17.0012H5.56962C5.16199 17.0012 4.83116 17.3364 4.83116 17.7511C4.83116 18.1658 5.16199 18.501 5.56962 18.501H14.4312C14.8388 18.501 15.1696 18.1658 15.1696 17.7511C15.1696 17.3364 14.8388 17.0012 14.4312 17.0012ZM15.1696 6.50294C14.3544 6.50294 13.6927 5.83105 13.6927 5.00319V2.00368L18.1235 6.50294H15.1696ZM18.1235 21.5005C18.1235 22.3284 17.4618 23.0002 16.6465 23.0002H3.35424C2.53898 23.0002 1.87731 22.3284 1.87731 21.5005V3.50343C1.87731 2.67557 2.53898 2.00368 3.35424 2.00368H12.1951C12.1818 3.79963 12.2158 5.00319 12.2158 5.00319C12.2158 6.65967 13.5384 8.0027 15.1696 8.0027H18.1235V21.5005ZM13.6927 0.503923V0.52492C13.5982 0.52492 13.2038 0.488176 12.2158 0.503923H3.35424C1.72298 0.503923 0.400391 1.84695 0.400391 3.50343V21.5005C0.400391 23.157 1.72298 24.5 3.35424 24.5H16.6465C18.2778 24.5 19.6004 23.157 19.6004 21.5005V6.50294L13.6927 0.503923Z" fill="#7C7C7C"/>
</svg>
