<svg width="24" height="25" viewBox="0 0 24 25" fill="none" xmlns="http://www.w3.org/2000/svg">
<path fill-rule="evenodd" clip-rule="evenodd" d="M21.1213 3.20705C19.9497 2.03548 18.0503 2.03547 16.8787 3.20705L15.1989 4.88685L7.29289 12.7928C7.16473 12.921 7.07382 13.0816 7.02986 13.2574L6.02986 17.2574C5.94466 17.5982 6.04451 17.9587 6.29289 18.207C6.54127 18.4554 6.90176 18.5553 7.24254 18.4701L11.2425 17.4701C11.4184 17.4261 11.5789 17.3352 11.7071 17.207L19.5556 9.35857L21.2929 7.62126C22.4645 6.44969 22.4645 4.55019 21.2929 3.37862L21.1213 3.20705ZM18.2929 4.62126C18.6834 4.23074 19.3166 4.23074 19.7071 4.62126L19.8787 4.79283C20.2692 5.18336 20.2692 5.81653 19.8787 6.20705L18.8622 7.22357L17.3068 5.60738L18.2929 4.62126ZM15.8923 7.02185L17.4477 8.63804L10.4888 15.597L8.37437 16.1256L8.90296 14.0112L15.8923 7.02185ZM4 8.49994C4 7.94766 4.44772 7.49994 5 7.49994H10C10.5523 7.49994 11 7.05223 11 6.49994C11 5.94766 10.5523 5.49994 10 5.49994H5C3.34315 5.49994 2 6.84309 2 8.49994V19.4999C2 21.1568 3.34315 22.4999 5 22.4999H16C17.6569 22.4999 19 21.1568 19 19.4999V14.4999C19 13.9477 18.5523 13.4999 18 13.4999C17.4477 13.4999 17 13.9477 17 14.4999V19.4999C17 20.0522 16.5523 20.4999 16 20.4999H5C4.44772 20.4999 4 20.0522 4 19.4999V8.49994Z" fill="#7C7C7C"/>
</svg>
