<svg width="21" height="21" viewBox="0 0 21 21" fill="none" xmlns="http://www.w3.org/2000/svg">
<g id="clock-circle-svgrepo-com 1">
<path id="Vector" fill-rule="evenodd" clip-rule="evenodd" d="M10.5003 18.2083C6.24313 18.2083 2.79199 14.7572 2.79199 10.5C2.79199 6.24284 6.24313 2.79167 10.5003 2.79167C14.7575 2.79167 18.2087 6.24284 18.2087 10.5C18.2087 14.7572 14.7575 18.2083 10.5003 18.2083ZM1.54199 10.5C1.54199 15.4476 5.55278 19.4583 10.5003 19.4583C15.4479 19.4583 19.4587 15.4476 19.4587 10.5C19.4587 5.55242 15.4479 1.54167 10.5003 1.54167C5.55278 1.54167 1.54199 5.55242 1.54199 10.5ZM10.5003 14.4583C10.8455 14.4583 11.1253 14.1785 11.1253 13.8333L11.1253 10.7589L13.0256 8.85859C13.2697 8.6145 13.2697 8.21884 13.0256 7.97475C12.7815 7.73067 12.3858 7.73067 12.1417 7.97475L10.0584 10.0581C9.94116 10.1753 9.87533 10.3343 9.87533 10.5L9.87533 13.8333C9.87533 14.1785 10.1552 14.4583 10.5003 14.4583Z" fill="#353232"/>
</g>
</svg>
